<?xml version="1.0" standalone="no"?>
<!DOCTYPE svg PUBLIC "-//W3C//DTD SVG 20010904//EN"
 "http://www.w3.org/TR/2001/REC-SVG-20010904/DTD/svg10.dtd">
<svg version="1.0" xmlns="http://www.w3.org/2000/svg"
 width="512.000000pt" height="512.000000pt" viewBox="0 0 512.000000 512.000000"
 preserveAspectRatio="xMidYMid meet">
<metadata>
Created by potrace 1.14, written by Peter Selinger 2001-2017
</metadata>
<g transform="translate(0.000000,512.000000) scale(0.100000,-0.100000)"
fill="#000000" stroke="none">
<path d="M2465 4293 c-201 -29 -397 -121 -540 -254 l-60 -57 -108 -6 c-370
-22 -578 -139 -691 -390 -25 -56 -56 -157 -61 -203 -2 -12 -5 -25 -8 -30 -4
-7 -11 -53 -23 -158 -11 -98 -17 -359 -18 -790 -2 -347 -6 -504 -15 -539 -30
-123 -120 -186 -266 -187 -79 0 -150 30 -193 81 -48 56 -113 184 -137 268 -7
23 -24 29 -41 13 -5 -4 -45 -27 -89 -51 -86 -46 -157 -85 -192 -106 l-22 -14
25 -77 c112 -345 264 -511 534 -584 112 -30 317 -35 438 -10 240 50 409 204
501 458 16 43 32 92 35 108 3 17 10 50 15 75 13 65 21 142 27 250 3 52 6 96 8
98 2 1 255 4 562 6 597 3 620 5 792 58 367 113 626 402 708 788 22 104 24 315
5 415 -101 517 -505 841 -1051 842 -58 0 -118 -1 -135 -4z m-600 -1290 c49
-51 62 -141 29 -206 -31 -62 -95 -97 -178 -98 -112 -2 -179 63 -180 175 -1 52
3 69 26 104 67 100 218 113 303 25z"/>
<path d="M3650 4020 c0 -7 13 -29 28 -49 147 -190 234 -473 227 -741 -4 -124
-9 -168 -35 -276 -75 -319 -274 -603 -547 -780 -115 -74 -291 -148 -413 -173
-30 -6 -66 -14 -80 -16 -111 -23 -427 -23 -700 0 -30 3 -98 7 -150 10 -52 4
-121 8 -152 11 l-58 5 0 -566 0 -565 53 -1 c28 0 157 -2 285 -4 180 -4 234 -2
237 8 6 15 35 180 49 275 2 15 11 65 20 112 8 47 18 101 21 120 3 19 12 67 20
106 8 38 17 96 21 127 4 32 10 59 13 62 6 3 126 6 901 21 168 3 388 7 490 9
328 6 421 7 425 4 1 -2 6 -65 10 -139 7 -144 13 -256 20 -385 2 -44 7 -143 11
-220 3 -77 10 -142 14 -145 5 -3 156 -5 337 -5 l328 0 1 25 c1 14 5 84 8 155
7 131 12 228 21 385 2 47 7 139 10 205 3 66 7 158 10 205 3 47 7 141 10 210 4
69 8 161 10 205 20 392 26 834 12 940 -24 191 -108 404 -204 516 -119 139
-305 242 -503 279 -30 6 -66 12 -79 15 -13 2 -58 7 -100 10 -155 11 -217 16
-266 21 -60 7 -83 9 -200 19 -49 4 -93 9 -97 12 -5 2 -8 -1 -8 -7z"/>
<path d="M2676 1491 c-2 -9 -11 -47 -20 -86 -8 -38 -29 -133 -47 -210 -17 -77
-32 -147 -34 -155 -18 -80 -35 -163 -35 -170 0 -4 60 -9 133 -10 72 -1 156 -3
185 -5 29 -1 54 1 57 5 3 4 7 25 11 46 13 87 15 100 19 124 2 14 7 43 10 65
40 280 55 386 55 398 0 11 -31 13 -165 13 -141 0 -165 -2 -169 -15z"/>
<path d="M3735 1499 c-3 -3 -3 -21 0 -40 4 -36 11 -136 30 -419 4 -58 9 -116
10 -130 2 -14 3 -35 4 -46 1 -21 6 -22 104 -24 56 -1 140 -2 187 -3 l85 -2 -1
70 c-1 64 -11 239 -19 325 -2 19 -6 82 -10 140 -3 58 -8 112 -11 121 -4 14
-29 16 -190 15 -102 0 -187 -3 -189 -7z"/>
</g>
</svg>
